Coordinates
version=1
nRows=15
nColumns=46
inDegrees=yes

Units are S.I. units (second, meters, Newtons, ...)
Angles are in degrees.

endheader
time	pelvis_tilt	pelvis_list	pelvis_rotation	pelvis_tx	pelvis_ty	pelvis_tz	bb_angle	bb_tx	bb_ty	bb_tz	hip_flexion_r	hip_adduction_r	hip_rotation_r	knee_angle_r	knee_angle_r_beta	ankle_angle_r	subtalar_angle_r	mtp_angle_r	crank_angle_r	hip_flexion_l	hip_adduction_l	hip_rotation_l	knee_angle_l	knee_angle_l_beta	ankle_angle_l	subtalar_angle_l	mtp_angle_l	crank_angle_l	lumbar_extension	lumbar_bending	lumbar_rotation	arm_flex_r	arm_add_r	arm_rot_r	elbow_flex_r	pro_sup_r	wrist_flex_r	wrist_dev_r	arm_flex_l	arm_add_l	arm_rot_l	elbow_flex_l	pro_sup_l	wrist_flex_l	wrist_dev_l
      5.00000000	    -19.51381884	      2.86717519	      5.73808308	      0.07786663	      1.10922635	     -0.27254308	      0.00000000	      0.50000000	      0.00000000	      0.25000000	     40.50786597	     -9.23863187	     -3.32427969	     36.04842974	      0.62916379	    -10.77539211	     -8.41931293	      0.00000000	      0.00000000	     95.87153604	      5.48844188	      5.45945728	    108.94605317	      1.90146733	      0.46374758	    -12.87006109	      0.00000000	      0.00000000	    -63.90421437	     -3.35246371	    -15.19787947	     88.79727269	    -29.60455669	     35.60996806	     70.15218139	     36.69946147	      0.00000000	      0.00000000	     89.43538303	    -44.50805472	     33.92942482	     95.51906560	     43.40318288	      0.00000000	      0.00000000
      5.00500000	    -19.51965638	      2.79053496	      6.16532953	      0.07764266	      1.11010929	     -0.27302415	      0.00000000	      0.50000000	      0.00000000	      0.25000000	     41.45963713	     -9.42906511	     -3.24214235	     38.88082952	      0.67859849	    -11.10530414	     -9.69478891	      0.00000000	      0.00000000	     95.01013246	      5.62969801	      5.22313407	    107.27793345	      1.87235315	      2.52146733	    -13.13032000	      0.00000000	      0.00000000	    -64.10166275	     -3.05937959	    -15.21545641	     88.84566442	    -29.92759778	     35.52726029	     70.03732989	     36.70953982	      0.00000000	      0.00000000	     89.44133118	    -44.37377200	     33.84995572	     95.59108912	     43.33671403	      0.00000000	      0.00000000
      5.01000000	    -19.74314934	      3.11281009	      6.63375116	      0.07741169	      1.11080886	     -0.27346235	      0.00000000	      0.50000000	      0.00000000	      0.25000000	     42.85045597	     -9.96068851	     -2.64387557	     41.98398182	      0.73275872	    -11.73995041	    -11.19166172	      0.00000000	      0.00000000	     94.12622525	      5.82386700	      4.63065100	    105.31584952	      1.83810833	      4.76166039	    -12.53013566	      0.00000000	      0.00000000	    -64.10009771	     -2.98323991	    -15.55262676	     88.78875560	    -30.49601097	     35.49820066	     70.01033181	     36.78007979	      0.00000000	      0.00000000	     89.46204806	    -43.89842986	     33.78609395	     95.67913631	     43.18721529	      0.00000000	      0.00000000
      5.01500000	    -19.80026787	      3.13494621	      7.00011330	      0.07726070	      1.11139604	     -0.27374825	      0.00000000	      0.50000000	      0.00000000	      0.25000000	     44.14738292	    -10.13076884	     -2.08024597	     45.14661978	      0.78795716	    -12.37199280	    -12.28887302	      0.00000000	      0.00000000	     93.05260976	      5.86564521	      4.34018855	    103.30464128	      1.80300612	      6.82798850	    -12.21677107	      0.00000000	      0.00000000	    -64.17359463	     -2.81725575	    -15.50911817	     88.74318081	    -31.01977557	     35.49889521	     70.00861214	     36.87841573	      0.00000000	      0.00000000	     89.47177074	    -43.42601605	     33.81001876	     95.65726386	     42.98382508	      0.00000000	      0.00000000
      5.02000000	    -19.78776864	      3.02890550	      7.37018722	      0.07720116	      1.11191397	     -0.27398679	      0.00000000	      0.50000000	      0.00000000	      0.25000000	     45.41142354	    -10.16730143	     -1.51087480	     48.31687793	      0.84328860	    -13.13892208	    -13.06900627	      0.00000000	      0.00000000	     91.83998142	      5.87821809	      4.15197057	    101.13037269	      1.76505798	      8.58902855	    -12.12343399	      0.00000000	      0.00000000	    -64.28957808	     -2.56836491	    -15.25318001	     88.72656826	    -31.67799218	     35.57155852	     70.07853162	     37.03062165	      0.00000000	      0.00000000	     89.48041777	    -42.84485481	     33.91210100	     95.54240002	     42.69952368	      0.00000000	      0.00000000
      5.02500000	    -19.68205239	      2.89678345	      7.83311872	      0.07728100	      1.11238400	     -0.27429517	      0.00000000	      0.50000000	      0.00000000	      0.25000000	     46.59470654	    -10.25107535	     -1.05708169	     51.50875574	      0.89899738	    -13.91496090	    -13.80591685	      0.00000000	      0.00000000	     90.48155726	      5.94057580	      3.92461553	     98.81091202	      1.72457575	      9.97736550	    -12.29381344	      0.00000000	      0.00000000	    -64.46122036	     -2.18762964	    -15.07138059	     88.70950663	    -32.13049964	     35.53641392	     70.13121033	     37.13320966	      0.00000000	      0.00000000	     89.48276587	    -42.40318273	     34.04105751	     95.47579191	     42.50872575	      0.00000000	      0.00000000
      5.03000000	    -19.48567930	      2.57590915	      8.20124701	      0.07733883	      1.11266185	     -0.27452422	      0.00000000	      0.50000000	      0.00000000	      0.25000000	     47.70090880	    -10.08705399	     -0.63839433	     54.64285830	      0.95369779	    -14.60650539	    -14.27871271	      0.00000000	      0.00000000	     89.06115346	      5.87577324	      3.88955905	     96.46004537	      1.68354539	     11.02370184	    -12.59157128	      0.00000000	      0.00000000	    -64.66458149	     -1.71051338	    -14.71818210	     88.72753595	    -32.34468698	     35.49132286	     70.14171679	     37.17866709	      0.00000000	      0.00000000	     89.47592595	    -42.20929952	     34.12707912	     95.47943470	     42.42731537	      0.00000000	      0.00000000
      5.03500000	    -19.37755163	      2.49402635	      8.53507657	      0.07735538	      1.11278503	     -0.27481763	      0.00000000	      0.50000000	      0.00000000	      0.25000000	     48.97018702	    -10.14397989	     -0.07578671	     57.76055372	      1.00811184	    -15.41259585	    -14.56464780	      0.00000000	      0.00000000	     87.67048397	      5.80918929	      3.55262715	     93.96891647	      1.64006699	     11.78124870	    -12.70383331	      0.00000000	      0.00000000	    -64.76283596	     -1.43864277	    -14.53777075	     88.67470495	    -32.70025280	     35.47524743	     70.26270628	     37.27653852	      0.00000000	      0.00000000	     89.47118998	    -41.79708640	     34.31185195	     95.39340467	     42.28633158	      0.00000000	      0.00000000
      5.04000000	    -19.11495097	      2.06837965	      8.78346265	      0.07734741	      1.11262577	     -0.27505232	      0.00000000	      0.50000000	      0.00000000	      0.25000000	     50.08743707	     -9.86592173	      0.24220643	     60.83474849	      1.06176666	    -16.12816756	    -14.55704596	      0.00000000	      0.00000000	     86.26820712	      5.59120322	      3.53161621	     91.57791082	      1.59833607	     12.39718581	    -12.62680488	      0.00000000	      0.00000000	    -64.91516346	     -0.96617824	    -14.09277249	     88.69316031	    -32.76591293	     35.47628581	     70.34708700	     37.32990161	      0.00000000	      0.00000000	     89.45707506	    -41.64875062	     34.37883458	     95.36631885	     42.22083535	      0.00000000	      0.00000000
      5.04500000	    -18.87536342	      1.75323987	      9.05788664	      0.07729364	      1.11231931	     -0.27504231	      0.00000000	      0.50000000	      0.00000000	      0.25000000	     51.23832614	     -9.69132953	      0.55789096	     63.82859426	      1.11401913	    -16.85615712	    -14.48736025	      0.00000000	      0.00000000	     84.85389446	      5.44079251	      3.47474652	     89.12583782	      1.55553932	     12.76890090	    -12.41565228	      0.00000000	      0.00000000	    -65.06381626	     -0.59238025	    -13.75330999	     88.69158203	    -32.82666218	     35.44116648	     70.44371245	     37.38007274	      0.00000000	      0.00000000	     89.43275755	    -41.47558250	     34.47338922	     95.32111889	     42.16369303	      0.00000000	      0.00000000
      5.05000000	    -18.67796685	      1.78110978	      9.31199425	      0.07721172	      1.11204649	     -0.27530469	      0.00000000	      0.50000000	      0.00000000	      0.25000000	     52.46303095	     -9.80907828	      1.22965980	     66.82081645	      1.16624326	    -17.17952574	    -13.68518412	      0.00000000	      0.00000000	     83.37153779	      5.39049208	      3.05111739	     86.53789327	      1.51037117	     12.66307291	    -12.64554262	      0.00000000	      0.00000000	    -65.16017139	     -0.41148438	    -13.41427194	     88.51631979	    -33.46413106	     35.33839385	     70.93636135	     37.66369410	      0.00000000	      0.00000000	     89.44526779	    -40.66969042	     34.58910505	     94.87154757	     41.79909513	      0.00000000	      0.00000000
      5.05500000	    -18.46581218	      1.40419950	      9.45713386	      0.07701684	      1.11118472	     -0.27534524	      0.00000000	      0.50000000	      0.00000000	      0.25000000	     53.68924540	     -9.54338698	      1.53588468	     69.63896876	      1.21542929	    -17.80672484	    -13.11117728	      0.00000000	      0.00000000	     82.07727578	      5.08309980	      3.04056192	     84.19129787	      1.46941535	     12.50969848	    -12.34996898	      0.00000000	      0.00000000	    -65.18736319	     -0.13874291	    -12.56457243	     88.40760302	    -34.35878144	     35.36417613	     71.51692989	     38.23660392	      0.00000000	      0.00000000	     89.43207687	    -39.69882272	     34.63934299	     94.49611855	     41.13241594	      0.00000000	      0.00000000
      5.06000000	    -18.24196145	      1.00926881	      9.51167890	      0.07689086	      1.11025845	     -0.27515964	      0.00000000	      0.50000000	      0.00000000	      0.25000000	     54.88600584	     -9.16426440	      1.84262823	     72.31492234	      1.26213349	    -18.48669626	    -12.65844239	      0.00000000	      0.00000000	     80.79255018	      4.64547393	      3.07264095	     81.89598120	      1.42935452	     12.29306865	    -11.69487388	      0.00000000	      0.00000000	    -65.22855595	      0.14277304	    -12.13642939	     88.39871336	    -34.31834092	     35.33867919	     71.52844815	     38.29735308	      0.00000000	      0.00000000	     89.40743792	    -39.71005183	     34.63936555	     94.49828818	     41.06420009	      0.00000000	      0.00000000
      5.06500000	    -18.02454600	      0.65671918	      9.48005700	      0.07679000	      1.10901157	     -0.27495870	      0.00000000	      0.50000000	      0.00000000	      0.25000000	     56.13606568	     -8.80015372	      2.20220581	     74.97407596	      1.30854448	    -19.01736228	    -11.84688661	      0.00000000	      0.00000000	     79.55930499	      4.11712558	      3.04909072	     79.71154105	      1.39122884	     11.94862036	    -11.01591150	      0.00000000	      0.00000000	    -65.19805356	      0.28696979	    -11.65354736	     88.30928219	    -34.34199089	     35.27234077	     71.53405282	     38.37940547	      0.00000000	      0.00000000	     89.38347813	    -39.56393103	     34.67658267	     94.40952190	     40.96632322	      0.00000000	      0.00000000
      5.07000000	    -17.77796751	      0.18024122	      9.46764308	      0.07661019	      1.10767083	     -0.27469555	      0.00000000	      0.50000000	      0.00000000	      0.25000000	     57.32866788	     -8.38237029	      2.32451806	     77.49148851	      1.35248162	    -19.68905712	    -11.33086714	      0.00000000	      0.00000000	     78.36574045	      3.55699020	      3.12787884	     77.57060469	      1.35386245	     11.22416513	    -10.33507093	      0.00000000	      0.00000000	    -65.22304828	      0.53661778	    -11.16496008	     88.31766835	    -34.32099374	     35.20416995	     71.53152439	     38.41820534	      0.00000000	      0.00000000	     89.34993703	    -39.56682437	     34.64243953	     94.33798818	     40.91336840	      0.00000000	      0.00000000
